<mxfile host="app.diagrams.net" modified="2024-06-09T16:14:11.274Z" agent="Mozilla/5.0 (Windows NT 10.0; Win64; x64) AppleWebKit/537.36 (KHTML, like Gecko) Chrome/123.0.0.0 Safari/537.36 OPR/109.0.0.0" etag="YqK3rkqx4NpxcB-iHaWV" version="24.5.2" type="github">
  <diagram name="Page-1" id="e7e014a7-5840-1c2e-5031-d8a46d1fe8dd">
    <mxGraphModel dx="1063" dy="592" grid="1" gridSize="10" guides="1" tooltips="1" connect="1" arrows="1" fold="1" page="1" pageScale="1" pageWidth="1169" pageHeight="826" background="none" math="0" shadow="0">
      <root>
        <mxCell id="0" />
        <mxCell id="1" parent="0" />
        <mxCell id="skD7sMF4PVTZf7BbC8g8-41" value="iPhone" style="swimlane;fontStyle=1;align=center;verticalAlign=top;childLayout=stackLayout;horizontal=1;startSize=26;horizontalStack=0;resizeParent=1;resizeParentMax=0;resizeLast=0;collapsible=1;marginBottom=0;whiteSpace=wrap;html=1;" vertex="1" parent="1">
          <mxGeometry x="505" y="30" width="160" height="86" as="geometry" />
        </mxCell>
        <mxCell id="skD7sMF4PVTZf7BbC8g8-42" value="+ field: type" style="text;strokeColor=none;fillColor=none;align=left;verticalAlign=top;spacingLeft=4;spacingRight=4;overflow=hidden;rotatable=0;points=[[0,0.5],[1,0.5]];portConstraint=eastwest;whiteSpace=wrap;html=1;" vertex="1" parent="skD7sMF4PVTZf7BbC8g8-41">
          <mxGeometry y="26" width="160" height="26" as="geometry" />
        </mxCell>
        <mxCell id="skD7sMF4PVTZf7BbC8g8-43" value="" style="line;strokeWidth=1;fillColor=none;align=left;verticalAlign=middle;spacingTop=-1;spacingLeft=3;spacingRight=3;rotatable=0;labelPosition=right;points=[];portConstraint=eastwest;strokeColor=inherit;" vertex="1" parent="skD7sMF4PVTZf7BbC8g8-41">
          <mxGeometry y="52" width="160" height="8" as="geometry" />
        </mxCell>
        <mxCell id="skD7sMF4PVTZf7BbC8g8-44" value="+ method(type): type" style="text;strokeColor=none;fillColor=none;align=left;verticalAlign=top;spacingLeft=4;spacingRight=4;overflow=hidden;rotatable=0;points=[[0,0.5],[1,0.5]];portConstraint=eastwest;whiteSpace=wrap;html=1;" vertex="1" parent="skD7sMF4PVTZf7BbC8g8-41">
          <mxGeometry y="60" width="160" height="26" as="geometry" />
        </mxCell>
        <mxCell id="skD7sMF4PVTZf7BbC8g8-73" value="" style="shape=flexArrow;endArrow=classic;html=1;rounded=0;" edge="1" parent="1" source="skD7sMF4PVTZf7BbC8g8-45" target="skD7sMF4PVTZf7BbC8g8-41">
          <mxGeometry width="50" height="50" relative="1" as="geometry">
            <mxPoint x="210" y="200" as="sourcePoint" />
            <mxPoint x="260" y="150" as="targetPoint" />
          </mxGeometry>
        </mxCell>
        <mxCell id="skD7sMF4PVTZf7BbC8g8-74" value="" style="shape=flexArrow;endArrow=classic;html=1;rounded=0;" edge="1" parent="1" source="skD7sMF4PVTZf7BbC8g8-46" target="skD7sMF4PVTZf7BbC8g8-41">
          <mxGeometry width="50" height="50" relative="1" as="geometry">
            <mxPoint x="630" y="252" as="sourcePoint" />
            <mxPoint x="855" y="140" as="targetPoint" />
          </mxGeometry>
        </mxCell>
        <mxCell id="skD7sMF4PVTZf7BbC8g8-75" value="" style="shape=flexArrow;endArrow=classic;html=1;rounded=0;" edge="1" parent="1" source="skD7sMF4PVTZf7BbC8g8-47" target="skD7sMF4PVTZf7BbC8g8-41">
          <mxGeometry width="50" height="50" relative="1" as="geometry">
            <mxPoint x="770" y="220" as="sourcePoint" />
            <mxPoint x="995" y="108" as="targetPoint" />
          </mxGeometry>
        </mxCell>
        <mxCell id="skD7sMF4PVTZf7BbC8g8-76" value="ReprodutorMusical" style="swimlane;fontStyle=1;align=center;verticalAlign=top;childLayout=stackLayout;horizontal=1;startSize=26;horizontalStack=0;resizeParent=1;resizeParentMax=0;resizeLast=0;collapsible=1;marginBottom=0;whiteSpace=wrap;html=1;" vertex="1" parent="1">
          <mxGeometry x="120" y="490" width="160" height="34" as="geometry" />
        </mxCell>
        <mxCell id="skD7sMF4PVTZf7BbC8g8-78" value="" style="line;strokeWidth=1;fillColor=none;align=left;verticalAlign=middle;spacingTop=-1;spacingLeft=3;spacingRight=3;rotatable=0;labelPosition=right;points=[];portConstraint=eastwest;strokeColor=inherit;" vertex="1" parent="skD7sMF4PVTZf7BbC8g8-76">
          <mxGeometry y="26" width="160" height="8" as="geometry" />
        </mxCell>
        <mxCell id="skD7sMF4PVTZf7BbC8g8-80" value="AparelhoTelefonico" style="swimlane;fontStyle=1;align=center;verticalAlign=top;childLayout=stackLayout;horizontal=1;startSize=26;horizontalStack=0;resizeParent=1;resizeParentMax=0;resizeLast=0;collapsible=1;marginBottom=0;whiteSpace=wrap;html=1;" vertex="1" parent="1">
          <mxGeometry x="505" y="480" width="160" height="34" as="geometry" />
        </mxCell>
        <mxCell id="skD7sMF4PVTZf7BbC8g8-81" value="" style="line;strokeWidth=1;fillColor=none;align=left;verticalAlign=middle;spacingTop=-1;spacingLeft=3;spacingRight=3;rotatable=0;labelPosition=right;points=[];portConstraint=eastwest;strokeColor=inherit;" vertex="1" parent="skD7sMF4PVTZf7BbC8g8-80">
          <mxGeometry y="26" width="160" height="8" as="geometry" />
        </mxCell>
        <mxCell id="skD7sMF4PVTZf7BbC8g8-82" value="NavegadorNaInternet" style="swimlane;fontStyle=1;align=center;verticalAlign=top;childLayout=stackLayout;horizontal=1;startSize=26;horizontalStack=0;resizeParent=1;resizeParentMax=0;resizeLast=0;collapsible=1;marginBottom=0;whiteSpace=wrap;html=1;" vertex="1" parent="1">
          <mxGeometry x="880" y="446" width="160" height="34" as="geometry" />
        </mxCell>
        <mxCell id="skD7sMF4PVTZf7BbC8g8-83" value="" style="line;strokeWidth=1;fillColor=none;align=left;verticalAlign=middle;spacingTop=-1;spacingLeft=3;spacingRight=3;rotatable=0;labelPosition=right;points=[];portConstraint=eastwest;strokeColor=inherit;" vertex="1" parent="skD7sMF4PVTZf7BbC8g8-82">
          <mxGeometry y="26" width="160" height="8" as="geometry" />
        </mxCell>
        <mxCell id="skD7sMF4PVTZf7BbC8g8-84" value="" style="endArrow=none;dashed=1;html=1;rounded=0;" edge="1" parent="1" source="skD7sMF4PVTZf7BbC8g8-80" target="skD7sMF4PVTZf7BbC8g8-46">
          <mxGeometry width="50" height="50" relative="1" as="geometry">
            <mxPoint x="610" y="390" as="sourcePoint" />
            <mxPoint x="660" y="340" as="targetPoint" />
          </mxGeometry>
        </mxCell>
        <mxCell id="skD7sMF4PVTZf7BbC8g8-87" value="" style="group" vertex="1" connectable="0" parent="1">
          <mxGeometry x="498.75" y="220" width="172.5" height="210" as="geometry" />
        </mxCell>
        <mxCell id="skD7sMF4PVTZf7BbC8g8-46" value="Telefone" style="html=1;whiteSpace=wrap;" vertex="1" parent="skD7sMF4PVTZf7BbC8g8-87">
          <mxGeometry x="6.25" width="160" height="90" as="geometry" />
        </mxCell>
        <mxCell id="skD7sMF4PVTZf7BbC8g8-68" value="+ligar(numero: String): void&lt;br/&gt;        +atender(): void&lt;br/&gt;        +iniciarCorreioVoz(): void" style="html=1;whiteSpace=wrap;" vertex="1" parent="skD7sMF4PVTZf7BbC8g8-87">
          <mxGeometry y="120" width="172.5" height="90" as="geometry" />
        </mxCell>
        <mxCell id="skD7sMF4PVTZf7BbC8g8-71" value="-Contato[] contatos" style="html=1;whiteSpace=wrap;" vertex="1" parent="skD7sMF4PVTZf7BbC8g8-87">
          <mxGeometry x="6.25" y="90" width="160" height="30" as="geometry" />
        </mxCell>
        <mxCell id="skD7sMF4PVTZf7BbC8g8-90" value="" style="endArrow=none;dashed=1;html=1;rounded=0;" edge="1" parent="1" source="skD7sMF4PVTZf7BbC8g8-76" target="skD7sMF4PVTZf7BbC8g8-45">
          <mxGeometry width="50" height="50" relative="1" as="geometry">
            <mxPoint x="350" y="548" as="sourcePoint" />
            <mxPoint x="350" y="378" as="targetPoint" />
          </mxGeometry>
        </mxCell>
        <mxCell id="skD7sMF4PVTZf7BbC8g8-91" value="" style="group" vertex="1" connectable="0" parent="1">
          <mxGeometry x="115" y="220" width="170" height="210" as="geometry" />
        </mxCell>
        <mxCell id="skD7sMF4PVTZf7BbC8g8-45" value="Reprodução" style="html=1;whiteSpace=wrap;" vertex="1" parent="skD7sMF4PVTZf7BbC8g8-91">
          <mxGeometry x="5" width="160" height="90" as="geometry" />
        </mxCell>
        <mxCell id="skD7sMF4PVTZf7BbC8g8-67" value="+tocar(): void&lt;br/&gt;        +pausar(): void&lt;br/&gt;        +selecionarMusica(musica: String): void" style="html=1;whiteSpace=wrap;" vertex="1" parent="skD7sMF4PVTZf7BbC8g8-91">
          <mxGeometry y="120" width="170" height="90" as="geometry" />
        </mxCell>
        <mxCell id="skD7sMF4PVTZf7BbC8g8-70" value="-Musica[] musicas" style="html=1;whiteSpace=wrap;" vertex="1" parent="skD7sMF4PVTZf7BbC8g8-91">
          <mxGeometry x="5" y="90" width="160" height="30" as="geometry" />
        </mxCell>
        <mxCell id="skD7sMF4PVTZf7BbC8g8-92" value="" style="endArrow=none;dashed=1;html=1;rounded=0;" edge="1" parent="1" source="skD7sMF4PVTZf7BbC8g8-82" target="skD7sMF4PVTZf7BbC8g8-47">
          <mxGeometry width="50" height="50" relative="1" as="geometry">
            <mxPoint x="810" y="490" as="sourcePoint" />
            <mxPoint x="810" y="320" as="targetPoint" />
          </mxGeometry>
        </mxCell>
        <mxCell id="skD7sMF4PVTZf7BbC8g8-93" value="" style="group" vertex="1" connectable="0" parent="1">
          <mxGeometry x="875" y="220" width="170" height="180" as="geometry" />
        </mxCell>
        <mxCell id="skD7sMF4PVTZf7BbC8g8-47" value="Internet" style="html=1;whiteSpace=wrap;" vertex="1" parent="skD7sMF4PVTZf7BbC8g8-93">
          <mxGeometry x="5" width="160" height="90" as="geometry" />
        </mxCell>
        <mxCell id="skD7sMF4PVTZf7BbC8g8-69" value="+exibirPagina(url: String): void&lt;br/&gt;        +adicionarNovaAba(): void&lt;br/&gt;        +atualizarPagina(): void" style="html=1;whiteSpace=wrap;" vertex="1" parent="skD7sMF4PVTZf7BbC8g8-93">
          <mxGeometry y="90" width="170" height="90" as="geometry" />
        </mxCell>
      </root>
    </mxGraphModel>
  </diagram>
</mxfile>
